P1
5 4
01111
01111
11111
01101